<svg width="16" height="15" viewBox="0 0 16 15" fill="none" xmlns="http://www.w3.org/2000/svg">
<path d="M15.5556 8H13.3333V10.6667L12.4444 10.075L11.5556 10.6667V8H9.33333C9.08889 8 8.88889 8.2 8.88889 8.44444V13.7778C8.88889 14.0222 9.08889 14.2222 9.33333 14.2222H15.5556C15.8 14.2222 16 14.0222 16 13.7778V8.44444C16 8.2 15.8 8 15.5556 8ZM4.88889 6.22222H11.1111C11.3556 6.22222 11.5556 6.02222 11.5556 5.77778V0.444444C11.5556 0.2 11.3556 0 11.1111 0H8.88889V2.66667L8 2.075L7.11111 2.66667V0H4.88889C4.64444 0 4.44444 0.2 4.44444 0.444444V5.77778C4.44444 6.02222 4.64444 6.22222 4.88889 6.22222ZM6.66667 8H4.44444V10.6667L3.55556 10.075L2.66667 10.6667V8H0.444444C0.2 8 0 8.2 0 8.44444V13.7778C0 14.0222 0.2 14.2222 0.444444 14.2222H6.66667C6.91111 14.2222 7.11111 14.0222 7.11111 13.7778V8.44444C7.11111 8.2 6.91111 8 6.66667 8Z" fill="white"/>
</svg>
