<svg width="16" height="22" viewBox="0 0 16 22" fill="none" xmlns="http://www.w3.org/2000/svg">
<path d="M16 4.66667V19.3333C16 20.4379 15.1046 21.3333 14 21.3333H2C0.895417 21.3333 0 20.4379 0 19.3333V4.66667C0 3.56208 0.895417 2.66667 2 2.66667H5.33333C5.33333 1.19625 6.52958 0 8 0C9.47042 0 10.6667 1.19625 10.6667 2.66667H14C15.1046 2.66667 16 3.56208 16 4.66667ZM8 1.66667C7.44771 1.66667 7 2.11438 7 2.66667C7 3.21896 7.44771 3.66667 8 3.66667C8.55229 3.66667 9 3.21896 9 2.66667C9 2.11438 8.55229 1.66667 8 1.66667ZM12 6.41667V5.58333C12 5.51703 11.9737 5.45344 11.9268 5.40656C11.8799 5.35967 11.8163 5.33333 11.75 5.33333H4.25C4.1837 5.33333 4.12011 5.35967 4.07322 5.40656C4.02634 5.45344 4 5.51703 4 5.58333V6.41667C4 6.48297 4.02634 6.54656 4.07322 6.59344C4.12011 6.64033 4.1837 6.66667 4.25 6.66667H11.75C11.8163 6.66667 11.8799 6.64033 11.9268 6.59344C11.9737 6.54656 12 6.48297 12 6.41667Z" fill="white"/>
</svg>
