<svg width="16" height="12" viewBox="0 0 16 12" fill="none" xmlns="http://www.w3.org/2000/svg">
<path d="M10.6429 5.60057C10.2204 5.60057 9.82294 5.37559 9.60795 5.01561L8.00055 2.35078L6.39566 5.01561C6.17817 5.37809 5.78069 5.60307 5.35822 5.60307C5.24573 5.60307 5.13323 5.58807 5.02574 5.55557L1.60096 4.57564V9.02536C1.60096 9.39283 1.85094 9.71281 2.20592 9.80031L7.61058 11.1527C7.86556 11.2152 8.13305 11.2152 8.38553 11.1527L13.7952 9.80031C14.1502 9.71031 14.4001 9.39033 14.4001 9.02536V4.57564L10.9754 5.55307C10.8679 5.58557 10.7554 5.60057 10.6429 5.60057ZM15.9576 2.79575L14.6701 0.22591C14.5926 0.0709196 14.4251 -0.0190747 14.2527 0.00342385L8.00055 0.800874L10.2929 4.60313C10.3879 4.76062 10.5779 4.83562 10.7554 4.78562L15.7026 3.37321C15.9501 3.30072 16.07 3.02573 15.9576 2.79575V2.79575ZM1.33097 0.22591L0.0435554 2.79575C-0.0714374 3.02573 0.0510549 3.30072 0.296039 3.37071L5.24323 4.78312C5.42072 4.83312 5.6107 4.75812 5.7057 4.60063L8.00055 0.800874L1.74595 0.00342385C1.57346 -0.0165749 1.40847 0.0709196 1.33097 0.22591V0.22591Z" fill="white"/>
</svg>
