<svg width="16" height="16" viewBox="0 0 16 16" fill="none" xmlns="http://www.w3.org/2000/svg">
<path d="M8 13C11.5906 13 14.5 10.0906 14.5 6.5C14.5 2.90937 11.5906 0 8 0C4.40938 0 1.5 2.90937 1.5 6.5C1.5 10.0906 4.40938 13 8 13ZM7.30625 3.04375V2.51875C7.30625 2.23125 7.5375 2 7.825 2H8.17188C8.45938 2 8.69063 2.23125 8.69063 2.51875V3.05C9.175 3.075 9.64375 3.24062 10.0344 3.53125C10.2094 3.65937 10.2281 3.91563 10.0719 4.06563L9.5625 4.55C9.44375 4.66563 9.26562 4.66875 9.125 4.58125C8.95625 4.475 8.76875 4.42188 8.56875 4.42188H7.35313C7.07188 4.42188 6.84375 4.67812 6.84375 4.99375C6.84375 5.25 7 5.47812 7.22188 5.54375L9.16875 6.12813C9.97188 6.36875 10.5344 7.14063 10.5344 8.00625C10.5344 9.06875 9.70938 9.92813 8.6875 9.95625V10.4812C8.6875 10.7688 8.45625 11 8.16875 11H7.82188C7.53438 11 7.30312 10.7688 7.30312 10.4812V9.95C6.81875 9.925 6.35 9.75937 5.95937 9.46875C5.78437 9.34062 5.76562 9.08437 5.92188 8.93437L6.43125 8.45C6.55 8.33437 6.72813 8.33125 6.86875 8.41875C7.0375 8.525 7.225 8.57812 7.425 8.57812H8.64062C8.92188 8.57812 9.15 8.32188 9.15 8.00625C9.15 7.75 8.99375 7.52188 8.77188 7.45625L6.825 6.87187C6.02187 6.63125 5.45937 5.85938 5.45937 4.99375C5.4625 3.93125 6.28438 3.07188 7.30625 3.04375ZM15 11H13.9844C13.3719 11.8125 12.5906 12.4906 11.7031 13H13.6969C13.8625 13 13.9969 13.1125 13.9969 13.25V13.75C13.9969 13.8875 13.8625 14 13.6969 14H2.3C2.13437 14 2 13.8875 2 13.75V13.25C2 13.1125 2.13437 13 2.3 13H4.29375C3.40625 12.4906 2.62813 11.8125 2.0125 11H1C0.446875 11 0 11.4469 0 12V15C0 15.5531 0.446875 16 1 16H15C15.5531 16 16 15.5531 16 15V12C16 11.4469 15.5531 11 15 11Z" fill="white"/>
</svg>
