<svg width="17" height="14" viewBox="0 0 17 14" fill="none" xmlns="http://www.w3.org/2000/svg">
<path d="M0 2.52816V12.7494C0 13.0835 0.337344 13.3119 0.647535 13.188L4.72222 11.3333V0L0.593819 1.6513C0.418559 1.7214 0.26832 1.8424 0.162477 1.99869C0.0566338 2.15498 4.19749e-05 2.3394 0 2.52816H0ZM5.66667 11.3333L11.3333 13.2222V1.88889L5.66667 0V11.3333ZM16.3525 0.0342361L12.2778 1.88889V13.2222L16.4062 11.5709C16.5815 11.5009 16.7317 11.3799 16.8376 11.2236C16.9434 11.0673 17 10.8828 17 10.6941V0.472812C17 0.138715 16.6627 -0.0897222 16.3525 0.0342361V0.0342361Z" fill="white"/>
</svg>
