<svg width="16" height="19" viewBox="0 0 16 19" fill="none" xmlns="http://www.w3.org/2000/svg">
<path d="M15.5714 5.71429C15.8071 5.71429 16 5.52143 16 5.28571V3.85714C16 3.62143 15.8071 3.42857 15.5714 3.42857H14.8571V1.71429C14.8571 0.767857 14.0893 0 13.1429 0H1.71429C0.767857 0 0 0.767857 0 1.71429V16.5714C0 17.5179 0.767857 18.2857 1.71429 18.2857H13.1429C14.0893 18.2857 14.8571 17.5179 14.8571 16.5714V14.8571H15.5714C15.8071 14.8571 16 14.6643 16 14.4286V13C16 12.7643 15.8071 12.5714 15.5714 12.5714H14.8571V10.2857H15.5714C15.8071 10.2857 16 10.0929 16 9.85714V8.42857C16 8.19286 15.8071 8 15.5714 8H14.8571V5.71429H15.5714ZM7.42857 4.57143C8.68929 4.57143 9.71429 5.59643 9.71429 6.85714C9.71429 8.11786 8.68929 9.14286 7.42857 9.14286C6.16786 9.14286 5.14286 8.11786 5.14286 6.85714C5.14286 5.59643 6.16786 4.57143 7.42857 4.57143ZM11.4286 13.0286C11.4286 13.4071 11.0714 13.7143 10.6286 13.7143H4.22857C3.78571 13.7143 3.42857 13.4071 3.42857 13.0286V12.3429C3.42857 11.2071 4.50357 10.2857 5.82857 10.2857H6.00714C6.44643 10.4679 6.925 10.5714 7.42857 10.5714C7.93214 10.5714 8.41429 10.4679 8.85 10.2857H9.02857C10.3536 10.2857 11.4286 11.2071 11.4286 12.3429V13.0286Z" fill="white"/>
</svg>
