<svg width="17" height="16" viewBox="0 0 17 16" fill="none" xmlns="http://www.w3.org/2000/svg">
<path d="M8.5 0C6.44613 0 4.78125 1.66488 4.78125 3.71875C4.78125 5.3792 7.21172 8.40555 8.14288 9.50406C8.33148 9.7266 8.66882 9.7266 8.85712 9.50406C9.78828 8.40555 12.2188 5.3792 12.2188 3.71875C12.2188 1.66488 10.5539 0 8.5 0ZM8.5 4.95833C7.81528 4.95833 7.26042 4.40347 7.26042 3.71875C7.26042 3.03403 7.81528 2.47917 8.5 2.47917C9.18472 2.47917 9.73958 3.03403 9.73958 3.71875C9.73958 4.40347 9.18472 4.95833 8.5 4.95833ZM0.593819 6.37352C0.418559 6.44362 0.26832 6.56462 0.162477 6.72091C0.0566338 6.8772 4.19749e-05 7.06162 0 7.25038L0 14.6383C0 14.9724 0.337344 15.2008 0.647535 15.0769L4.72222 13.2222V6.34312C4.46132 5.87149 4.24793 5.41226 4.09505 4.97309L0.593819 6.37352ZM8.5 10.6153C8.08474 10.6153 7.69191 10.4329 7.42245 10.1147C6.8422 9.42998 6.22507 8.65023 5.66667 7.8504V13.2219L11.3333 15.1108V7.85069C10.7749 8.65023 10.1581 9.43028 9.57755 10.115C9.30809 10.4329 8.91526 10.6153 8.5 10.6153ZM16.3525 4.75646L12.2778 6.61111V15.1111L16.4062 13.4598C16.5815 13.3897 16.7317 13.2688 16.8376 13.1125C16.9434 12.9562 17 12.7717 17 12.583V5.19503C17 4.86094 16.6627 4.6325 16.3525 4.75646Z" fill="white"/>
</svg>
