<svg width="16" height="22" viewBox="0 0 16 22" fill="none" xmlns="http://www.w3.org/2000/svg">
<path d="M14 2.66667H10.6667C10.6667 1.19583 9.47083 0 8 0C6.52917 0 5.33333 1.19583 5.33333 2.66667H2C0.895833 2.66667 0 3.5625 0 4.66667V19.3333C0 20.4375 0.895833 21.3333 2 21.3333H14C15.1042 21.3333 16 20.4375 16 19.3333V4.66667C16 3.5625 15.1042 2.66667 14 2.66667ZM8 1.66667C8.55417 1.66667 9 2.1125 9 2.66667C9 3.22083 8.55417 3.66667 8 3.66667C7.44583 3.66667 7 3.22083 7 2.66667C7 2.1125 7.44583 1.66667 8 1.66667ZM13.05 11.325L7.09167 17.2333C6.89583 17.4292 6.57917 17.425 6.38333 17.2292L2.94167 13.7583C2.74583 13.5625 2.75 13.2458 2.94583 13.05L4.12917 11.875C4.325 11.6792 4.64167 11.6833 4.8375 11.8792L6.75417 13.8125L11.1708 9.42917C11.3667 9.23333 11.6833 9.2375 11.8792 9.43333L13.0542 10.6167C13.25 10.8167 13.2458 11.1292 13.05 11.325Z" fill="white"/>
</svg>
