<svg width="18" height="15" viewBox="0 0 18 15" fill="none" xmlns="http://www.w3.org/2000/svg">
<path d="M17.1721 10.5002C17.2453 10.1036 17.2453 9.69852 17.1721 9.30192L17.8978 8.88281C17.9822 8.83499 18.0188 8.73655 17.9906 8.64372C17.8022 8.03616 17.4787 7.48485 17.0568 7.02918C16.9921 6.95886 16.888 6.94198 16.8036 6.9898L16.0779 7.40891C15.7713 7.14732 15.4198 6.94479 15.04 6.80978V5.97157C15.04 5.87593 14.9725 5.79155 14.8797 5.77186C14.2524 5.63122 13.6139 5.63684 13.0176 5.77186C12.9248 5.79155 12.8573 5.87593 12.8573 5.97157V6.80978C12.4776 6.94479 12.126 7.14732 11.8194 7.40891L11.0937 6.9898C11.0121 6.94198 10.9052 6.95886 10.8405 7.02918C10.4186 7.48485 10.0951 8.03616 9.90667 8.64372C9.87854 8.73655 9.91792 8.83499 9.99949 8.88281L10.7252 9.30192C10.6521 9.69852 10.6521 10.1036 10.7252 10.5002L9.99949 10.9193C9.91511 10.9671 9.87854 11.0655 9.90667 11.1584C10.0951 11.7659 10.4186 12.3144 10.8405 12.7729C10.9052 12.8432 11.0093 12.8601 11.0937 12.8123L11.8194 12.3932C12.126 12.6548 12.4776 12.8573 12.8573 12.9923V13.8305C12.8573 13.9262 12.9248 14.0105 13.0176 14.0302C13.6449 14.1709 14.2834 14.1652 14.8797 14.0302C14.9725 14.0105 15.04 13.9262 15.04 13.8305V12.9923C15.4198 12.8573 15.7713 12.6548 16.0779 12.3932L16.8036 12.8123C16.8852 12.8601 16.9921 12.8432 17.0568 12.7729C17.4787 12.3172 17.8022 11.7659 17.9906 11.1584C18.0188 11.0655 17.9794 10.9671 17.8978 10.9193L17.1721 10.5002ZM13.9515 11.2653C13.1976 11.2653 12.5873 10.6521 12.5873 9.90104C12.5873 9.15003 13.2005 8.53684 13.9515 8.53684C14.7025 8.53684 15.3157 9.15003 15.3157 9.90104C15.3157 10.6521 14.7053 11.2653 13.9515 11.2653ZM6.30066 7.20076C8.28931 7.20076 9.90104 5.58903 9.90104 3.60038C9.90104 1.61173 8.28931 0 6.30066 0C4.31202 0 2.70028 1.61173 2.70028 3.60038C2.70028 5.58903 4.31202 7.20076 6.30066 7.20076ZM11.96 13.5717C11.8953 13.538 11.8306 13.4986 11.7687 13.462L11.5465 13.5914C11.3778 13.6871 11.1865 13.7405 10.9952 13.7405C10.6886 13.7405 10.3933 13.6111 10.1823 13.3861C9.66758 12.8292 9.27379 12.1513 9.05158 11.4284C8.89688 10.9305 9.10502 10.4045 9.55507 10.1429L9.77728 10.0136C9.77447 9.94042 9.77447 9.86729 9.77728 9.79416L9.55507 9.66477C9.10502 9.40599 8.89688 8.87719 9.05158 8.37932C9.07689 8.29775 9.11346 8.21618 9.14159 8.13461C9.0347 8.12617 8.93063 8.10085 8.82093 8.10085H8.35119C7.72675 8.38776 7.03199 8.5509 6.30066 8.5509C5.56934 8.5509 4.87739 8.38776 4.25014 8.10085H3.7804C1.6933 8.10085 0 9.79416 0 11.8813V13.0514C0 13.7968 0.604751 14.4015 1.35014 14.4015H11.2512C11.5353 14.4015 11.7997 14.3115 12.0163 14.1624C11.9825 14.0555 11.96 13.9458 11.96 13.8305V13.5717Z" fill="white"/>
</svg>
